<?xml version="1.0" encoding="UTF-8" standalone="no"?>
<!DOCTYPE svg PUBLIC "-//W3C//DTD SVG 1.1//EN"
 "http://www.w3.org/Graphics/SVG/1.1/DTD/svg11.dtd">
<!-- Generated by graphviz version 2.43.0 (0)
 -->
<!-- Title: sourcetree Pages: 1 -->
<svg width="824pt" height="116pt"
 viewBox="0.00 0.00 823.50 116.00" xmlns="http://www.w3.org/2000/svg" xmlns:xlink="http://www.w3.org/1999/xlink">
<g id="graph0" class="graph" transform="scale(1 1) rotate(0) translate(4 112)">
<title>sourcetree</title>
<polygon fill="white" stroke="transparent" points="-4,4 -4,-112 819.5,-112 819.5,4 -4,4"/>
<!-- mulle&#45;pq -->
<g id="node1" class="node">
<title>mulle&#45;pq</title>
<polygon fill="yellow" stroke="black" points="403,-108 324,-108 324,-72 403,-72 403,-108"/>
<text text-anchor="middle" x="363.5" y="-86.3" font-family="Times,serif" font-size="14.00">mulle&#45;pq</text>
</g>
<!-- MulleFoundation -->
<g id="node2" class="node">
<title>MulleFoundation</title>
<g id="a_node2"><a xlink:href="https://github.com/MulleFoundation/MulleFoundation" xlink:title="MulleFoundation">
<polygon fill="lightgrey" stroke="black" points="137,-36 0,-36 0,0 137,0 137,-36"/>
<text text-anchor="middle" x="68.5" y="-14.3" font-family="Times,serif" font-size="14.00">MulleFoundation</text>
</a>
</g>
</g>
<!-- mulle&#45;pq&#45;&gt;MulleFoundation -->
<g id="edge1" class="edge">
<title>mulle&#45;pq&#45;&gt;MulleFoundation</title>
<path fill="none" stroke="black" d="M323.71,-79.56C278.69,-68.87 204.21,-51.2 147.3,-37.7"/>
<polygon fill="black" stroke="black" points="147.79,-34.22 137.25,-35.31 146.17,-41.03 147.79,-34.22"/>
</g>
<!-- MulleFoundation&#45;startup -->
<g id="node3" class="node">
<title>MulleFoundation&#45;startup</title>
<g id="a_node3"><a xlink:href="https://github.com/MulleFoundation/MulleFoundation-startup" xlink:title="MulleFoundation&#45;startup">
<polygon fill="lightgrey" stroke="black" points="349.5,-36 155.5,-36 155.5,0 349.5,0 349.5,-36"/>
<text text-anchor="middle" x="252.5" y="-14.3" font-family="Times,serif" font-size="14.00">MulleFoundation&#45;startup</text>
</a>
</g>
</g>
<!-- mulle&#45;pq&#45;&gt;MulleFoundation&#45;startup -->
<g id="edge2" class="edge">
<title>mulle&#45;pq&#45;&gt;MulleFoundation&#45;startup</title>
<path fill="none" stroke="black" d="M336.35,-71.88C321.97,-62.81 304.12,-51.55 288.59,-41.76"/>
<polygon fill="black" stroke="black" points="290.08,-38.56 279.76,-36.19 286.35,-44.48 290.08,-38.56"/>
</g>
<!-- MulleObjCExpatFoundation -->
<g id="node4" class="node">
<title>MulleObjCExpatFoundation</title>
<g id="a_node4"><a xlink:href="https://github.com/MulleFoundation/MulleObjCExpatFoundation" xlink:title="MulleObjCExpatFoundation">
<polygon fill="lightgrey" stroke="black" points="583,-36 368,-36 368,0 583,0 583,-36"/>
<text text-anchor="middle" x="475.5" y="-14.3" font-family="Times,serif" font-size="14.00">MulleObjCExpatFoundation</text>
</a>
</g>
</g>
<!-- mulle&#45;pq&#45;&gt;MulleObjCExpatFoundation -->
<g id="edge3" class="edge">
<title>mulle&#45;pq&#45;&gt;MulleObjCExpatFoundation</title>
<path fill="none" stroke="black" d="M390.9,-71.88C405.41,-62.81 423.42,-51.55 439.09,-41.76"/>
<polygon fill="black" stroke="black" points="441.37,-44.46 448,-36.19 437.66,-38.52 441.37,-44.46"/>
</g>
<!-- MulleObjCJSMNFoundation -->
<g id="node5" class="node">
<title>MulleObjCJSMNFoundation</title>
<g id="a_node5"><a xlink:href="https://github.com/MulleWeb/MulleObjCJSMNFoundation" xlink:title="MulleObjCJSMNFoundation">
<polygon fill="lightgrey" stroke="black" points="815.5,-36 601.5,-36 601.5,0 815.5,0 815.5,-36"/>
<text text-anchor="middle" x="708.5" y="-14.3" font-family="Times,serif" font-size="14.00">MulleObjCJSMNFoundation</text>
</a>
</g>
</g>
<!-- mulle&#45;pq&#45;&gt;MulleObjCJSMNFoundation -->
<g id="edge4" class="edge">
<title>mulle&#45;pq&#45;&gt;MulleObjCJSMNFoundation</title>
<path fill="none" stroke="black" d="M403.08,-80.97C454.28,-70.58 545.12,-52.15 614.46,-38.08"/>
<polygon fill="black" stroke="black" points="615.42,-41.46 624.53,-36.04 614.03,-34.6 615.42,-41.46"/>
</g>
</g>
</svg>
